<svg xmlns="http://www.w3.org/2000/svg" xmlns:xlink="http://www.w3.org/1999/xlink" width="785.222" height="305.004" viewBox="0 0 785.222 305.004">
  <defs>
    <linearGradient id="linear-gradient" x1="0.524" y1="0.156" x2="0.537" y2="0.993" gradientUnits="objectBoundingBox">
      <stop offset="0" stop-color="#ffffff"/>
      <stop offset="1" stop-color="#ffbd4b"/>
    </linearGradient>
  </defs>
  <g id="Group_10560" data-name="Group 10560" transform="translate(-565.746 -386.999)">
    <path id="Path_4680" data-name="Path 4680" d="M59.235,131.063H18.511A18.533,18.533,0,0,1,0,112.55V18.511A18.532,18.532,0,0,1,18.511,0H59.035A40.35,40.35,0,0,1,76.914,3.875a32.891,32.891,0,0,1,12.353,9.981l.016.021a42.28,42.28,0,0,1,9.151,25.776A38.261,38.261,0,0,1,89.3,64.988l-.366.434.362.436a39.069,39.069,0,0,1,9.141,25.559A42,42,0,0,1,95.8,106.343a34.365,34.365,0,0,1-6.886,11.209,46.9,46.9,0,0,1-9.363,7.58,41.094,41.094,0,0,1-10.364,4.5h0A37.021,37.021,0,0,1,59.235,131.063ZM27.429,79.3v24.015l30.976.211h.005a12.382,12.382,0,0,0,8.729-3.507,11.168,11.168,0,0,0,3.933-8.6,12.344,12.344,0,0,0-.875-4.678,11.964,11.964,0,0,0-2.63-3.916A11.634,11.634,0,0,0,59.035,79.3Zm0-51.763V51.765H59.035A12.009,12.009,0,0,0,71.073,39.653a11.043,11.043,0,0,0-2.2-6.86,11.706,11.706,0,0,0-5.015-3.949,11.314,11.314,0,0,0-5.027-1.307Z" transform="translate(588.51 543.343)" fill="#ffffff"/>
    <g id="Group_10555" data-name="Group 10555">
      <path id="Path_4663" data-name="Path 4663" d="M3,0A3,3,0,1,1,0,3,3,3,0,0,1,3,0Z" transform="translate(582.508 558.984)" fill="#ffffff" opacity="0.6"/>
      <path id="Path_4662" data-name="Path 4662" d="M2.5,0A2.5,2.5,0,1,1,0,2.5,2.5,2.5,0,0,1,2.5,0Z" transform="translate(575.254 559.484)" fill="#ffffff" opacity="0.5"/>
      <path id="Path_4661" data-name="Path 4661" d="M1.5,0A1.5,1.5,0,1,1,0,1.5,1.5,1.5,0,0,1,1.5,0Z" transform="translate(570 560.484)" fill="#ffffff" opacity="0.4"/>
      <path id="Path_4660" data-name="Path 4660" d="M1,0A1,1,0,1,1,0,1,1,1,0,0,1,1,0Z" transform="translate(565.746 560.984)" fill="#ffffff" opacity="0.2"/>
    </g>
    <g id="Group_10556" data-name="Group 10556" transform="translate(0 22.828)">
      <path id="Path_4667" data-name="Path 4667" d="M3,0A3,3,0,1,1,0,3,3,3,0,0,1,3,0Z" transform="translate(582.508 558.984)" fill="#ffffff" opacity="0.6"/>
      <path id="Path_4666" data-name="Path 4666" d="M2.5,0A2.5,2.5,0,1,1,0,2.5,2.5,2.5,0,0,1,2.5,0Z" transform="translate(575.254 559.484)" fill="#ffffff" opacity="0.5"/>
      <path id="Path_4665" data-name="Path 4665" d="M1.5,0A1.5,1.5,0,1,1,0,1.5,1.5,1.5,0,0,1,1.5,0Z" transform="translate(570 560.484)" fill="#ffffff" opacity="0.4"/>
      <path id="Path_4664" data-name="Path 4664" d="M1,0A1,1,0,1,1,0,1,1,1,0,0,1,1,0Z" transform="translate(565.746 560.984)" fill="#ffffff" opacity="0.2"/>
    </g>
    <g id="Group_10557" data-name="Group 10557" transform="translate(0 46.124)">
      <path id="Path_4671" data-name="Path 4671" d="M3,0A3,3,0,1,1,0,3,3,3,0,0,1,3,0Z" transform="translate(582.508 558.984)" fill="#ffffff" opacity="0.6"/>
      <path id="Path_4670" data-name="Path 4670" d="M2.5,0A2.5,2.5,0,1,1,0,2.5,2.5,2.5,0,0,1,2.5,0Z" transform="translate(575.254 559.484)" fill="#ffffff" opacity="0.5"/>
      <path id="Path_4669" data-name="Path 4669" d="M1.5,0A1.5,1.5,0,1,1,0,1.5,1.5,1.5,0,0,1,1.5,0Z" transform="translate(570 560.484)" fill="#ffffff" opacity="0.4"/>
      <path id="Path_4668" data-name="Path 4668" d="M1,0A1,1,0,1,1,0,1,1,1,0,0,1,1,0Z" transform="translate(565.746 560.984)" fill="#ffffff" opacity="0.2"/>
    </g>
    <g id="Group_10558" data-name="Group 10558" transform="translate(0 68.952)">
      <path id="Path_4672" data-name="Path 4672" d="M3,0A3,3,0,1,1,0,3,3,3,0,0,1,3,0Z" transform="translate(582.508 558.984)" fill="#ffffff" opacity="0.6"/>
      <path id="Path_4673" data-name="Path 4673" d="M2.5,0A2.5,2.5,0,1,1,0,2.5,2.5,2.5,0,0,1,2.5,0Z" transform="translate(575.254 559.484)" fill="#ffffff" opacity="0.5"/>
      <path id="Path_4674" data-name="Path 4674" d="M1.5,0A1.5,1.5,0,1,1,0,1.5,1.5,1.5,0,0,1,1.5,0Z" transform="translate(570 560.484)" fill="#ffffff" opacity="0.4"/>
      <path id="Path_4675" data-name="Path 4675" d="M1,0A1,1,0,1,1,0,1,1,1,0,0,1,1,0Z" transform="translate(565.746 560.984)" fill="#ffffff" opacity="0.2"/>
    </g>
    <g id="Group_10559" data-name="Group 10559" transform="translate(0 90.952)">
      <path id="Path_4679" data-name="Path 4679" d="M3,0A3,3,0,1,1,0,3,3,3,0,0,1,3,0Z" transform="translate(582.508 558.984)" fill="#ffffff" opacity="0.6"/>
      <path id="Path_4678" data-name="Path 4678" d="M2.5,0A2.5,2.5,0,1,1,0,2.5,2.5,2.5,0,0,1,2.5,0Z" transform="translate(575.254 559.484)" fill="#ffffff" opacity="0.5"/>
      <path id="Path_4677" data-name="Path 4677" d="M1.5,0A1.5,1.5,0,1,1,0,1.5,1.5,1.5,0,0,1,1.5,0Z" transform="translate(570 560.484)" fill="#ffffff" opacity="0.4"/>
      <path id="Path_4676" data-name="Path 4676" d="M1,0A1,1,0,1,1,0,1,1,1,0,0,1,1,0Z" transform="translate(565.746 560.984)" fill="#ffffff" opacity="0.2"/>
    </g>
    <path id="Path_4565" data-name="Path 4565" d="M-5286.819-66.448a45.04,45.04,0,0,1,45.039-45.039,50.816,50.816,0,0,1,17.546,3.073v-27.012A13.574,13.574,0,0,1-5210.66-149a13.574,13.574,0,0,1,13.573,13.574V-78.2q0,.647-.059,1.278a13.524,13.524,0,0,1,.208,3.176c-.027.564-.048,1.155-.062,1.768.173,1.833.259,3.683.259,5.534q0,1.321-.075,2.622c.51,8.027,2.007,16.759,4.868,20.525a13.573,13.573,0,0,1-2.6,19.019,13.513,13.513,0,0,1-7.962,2.763l-.239,0a13.554,13.554,0,0,1-10.819-5.364,34.187,34.187,0,0,1-2-2.942,44.841,44.841,0,0,1-26.219,8.413A45.04,45.04,0,0,1-5286.819-66.448Zm27.147,0a17.913,17.913,0,0,0,17.892,17.892,17.92,17.92,0,0,0,17.734-15.507c-.094-2.069-.128-3.958-.13-5.594a17.921,17.921,0,0,0-17.6-14.684A17.913,17.913,0,0,0-5259.672-66.448Z" transform="translate(6540.15 695.683)" fill="#ffffff"/>
    <g id="Group_12" data-name="Group 12" transform="translate(702.971 543.475)">
      <path id="Path_4557" data-name="Path 4557" d="M-3315.447-48.922c-17.966-5.355-23.855-22.113-24.515-31.251h0l-.038-.018V-81.1c0,.068,0,.137,0,.207q-.011-.484.012-.975-.011.217-.014.435h0v-42a13.486,13.486,0,0,1,3.976-9.6,13.484,13.484,0,0,1,9.6-3.976,13.483,13.483,0,0,1,9.6,3.976,13.487,13.487,0,0,1,3.976,9.6v41.435c-.021-.137-.036-.245-.047-.34-.01-.12-.021-.239-.034-.357q.019.179.034.357c.087.761.848,6.094,5.209,7.394a13.573,13.573,0,0,1,9.13,16.885,13.58,13.58,0,0,1-13,9.7A13.59,13.59,0,0,1-3315.447-48.922Z" transform="translate(3340 179.152)" fill="#ffffff"/>
      <path id="Path_4681" data-name="Path 4681" d="M13.573,0A13.573,13.573,0,1,1,0,13.573,13.573,13.573,0,0,1,13.573,0Z" transform="translate(0.074)" fill="#ffffff"/>
    </g>
    <path id="Path_4557-2" data-name="Path 4557" d="M-3315.447-74.968c-17.966-5.355-23.855-22.113-24.515-31.251h0l-.038-.018v-.906c0,.068,0,.137,0,.207q-.011-.484.012-.975-.011.217-.014.435h0v-83.949a13.486,13.486,0,0,1,3.976-9.6,13.484,13.484,0,0,1,9.6-3.976,13.483,13.483,0,0,1,9.6,3.976,13.487,13.487,0,0,1,3.976,9.6v83.39c-.021-.137-.036-.245-.047-.34-.01-.12-.021-.239-.034-.357q.019.179.034.357c.087.761.848,6.094,5.209,7.394a13.573,13.573,0,0,1,9.13,16.885,13.58,13.58,0,0,1-13,9.7A13.589,13.589,0,0,1-3315.447-74.968Z" transform="translate(4325.523 748.673)" fill="#ffffff"/>
    <path id="Ellipse_12" data-name="Ellipse 12" d="M44.165,0a65.4,65.4,0,0,1,0,130.8H43.158l-.111,0h-.1l-.111,0h-.363l-.059,0h-.15l-.06,0h-.1l-.053,0-.059,0-.05,0-.048,0-.053,0-.059,0-.05,0-.049,0-.052,0-.058,0-.05,0-.048,0-.049,0h0l-.048,0-.049,0-.051,0h-.014l-.048,0-.048,0-.049,0-.05,0h-.015l-.047,0H41l-.04,0-.048,0-.05,0h-.016l-.047,0H40.8l-.042,0-.049,0-.05,0h-.015l-.047,0h-.007l-.041,0-.048,0-.051,0H40.43l-.047,0h-.008l-.04,0H40.32l-.033,0H40.27l-.035,0h-.012l-.048,0h0l-.043,0h-.014l-.034,0h-.017l-.033,0h-.015l-.047,0h-.008l-.04,0H39.9l-.032,0h-.018l-.034,0h-.014l-.047,0H39.75l-.04,0h-.015l-.033,0h-.017l-.034,0H39.6l-.047,0h-.007l-.041,0h-.015l-.033,0h-.017l-.033,0h-.015l-.047,0h-.009l-.039,0h-.015l-.032,0h-.017l-.033,0h-.015l-.047,0h-.009l-.039,0h-.015l-.033,0h-.016l-.035,0h-.013l-.048,0H38.92l-.04,0h-.016l-.032,0h-.016l-.035,0h-.013l-.047,0h-.008l-.039,0h-.016l-.032,0h-.017l-.033,0h-.014l-.047,0H38.5l-.038,0h-.017l-.031,0-.018,0-.032,0h-.016l-.046,0H38.3l-.037,0h-.017l-.032,0-.017,0-.033,0h-.015l-.047,0h-.01l-.037,0-.018,0-.029,0-.019,0-.03,0-.018,0-.043,0-.017,0-.032,0-.019,0-.029,0-.02,0-.03,0-.017,0-.045,0h-.014l-.033,0-.019,0-.028,0-.02,0-.029,0-.018,0-.045,0h-.014l-.033,0-.019,0-.028,0-.02,0-.029,0-.018,0-.043,0-.017,0-.032,0-.019,0-.029,0-.019,0-.031,0-.016,0-.045,0-.014,0-.033,0-.018,0-.029,0-.019,0-.03,0-.016,0-.045,0H36.85l-.034,0-.018,0-.029,0-.02,0-.029,0-.018,0-.044-.005-.016,0-.031,0-.02,0-.027,0-.021,0-.029,0-.017,0-.045-.005-.014,0-.032,0-.019,0-.028,0-.019,0-.03,0-.017,0-.045-.005-.014,0-.033,0-.018,0-.029,0-.019,0-.029,0-.018,0-.043-.005-.017,0-.03,0-.02,0-.027,0-.021,0-.028,0-.019,0-.044-.006-.017,0-.03,0-.02,0-.026,0-.021,0-.027,0-.019,0-.041-.005-.021,0-.029,0-.02,0-.027,0-.02,0-.028,0-.019,0-.037,0-.027,0-.026,0-.021,0-.025,0-.022,0-.025,0-.022,0-.036,0-.026,0-.027,0-.021,0-.025,0-.022,0-.026,0-.02,0-.039-.005-.024,0-.026,0-.022,0-.025,0-.022,0-.027,0-.019,0-.042-.006-.02,0-.028,0-.022,0-.024,0-.022,0-.025,0-.021,0-.03,0-.035-.005-.022,0-.023,0-.023,0-.023,0-.023,0-.022,0-.028,0-.036-.005-.024,0-.023,0-.023,0-.024,0-.023,0-.023,0-.03,0-.035-.005-.022,0-.024,0-.022,0-.024,0-.023,0-.022,0-.034-.005-.029,0-.024,0-.023,0-.024,0-.022,0-.025,0-.022,0-.027,0-.037-.006-.023,0-.023,0-.023,0-.023,0-.025,0-.021,0-.039-.006-.023,0-.027,0-.021,0-.024,0-.023,0-.023,0-.023,0-.028,0-.036-.006-.022,0-.024,0-.022,0-.024,0-.024,0-.021,0-.033-.006-.033-.006-.022,0-.024,0-.021,0-.024,0-.022,0-.024,0-.019,0-.047-.008-.019,0-.025,0-.021,0-.025,0-.019,0-.026,0-.01,0-.057-.01-.018,0-.027,0-.018,0-.027,0-.018,0-.027,0-.009,0-.06-.011-.016,0-.027,0-.019,0-.027,0-.018,0-.027,0-.01,0-.058-.011-.017,0-.026,0-.019,0-.025,0-.02,0-.026,0h0l-.068-.013-.015,0-.027-.005-.018,0-.028-.005-.016,0-.1-.018-.017,0-.027-.005-.017,0-.028-.005-.015,0-.1-.019-.012,0-.03-.006-.015,0-.029-.006-.015,0-.1-.019-.013,0-.029-.006-.015,0-.029-.006-.014,0-.1-.02-.01,0-.029-.006-.016,0-.029-.006-.014,0-.1-.02-.011,0-.031-.006-.013,0-.031-.006-.012,0-.1-.021-.008,0-.032-.006-.012,0-.032-.007-.008,0-.107-.022-.009,0-.032-.007-.012,0-.031-.006-.012,0-.106-.022-.007,0-.032-.007-.012,0-.032-.007-.008,0-.106-.023-.009,0-.032-.007-.01,0-.033-.007-.008,0-.109-.024h-.005l-.033-.007-.01,0-.033-.007-.008,0-.107-.023-.009,0-.032-.007-.011,0-.032-.007-.01,0-.106-.024-.008,0-.031-.007-.013,0-.031-.007-.009,0-.106-.024-.008,0-.033-.008-.009,0-.034-.008h-.005l-.113-.026h0l-.035-.008-.008,0-.035-.008h0l-.112-.026h0l-.035-.008-.008,0-.034-.008H29.08l-.112-.027h0l-.035-.008-.008,0-.035-.008h0l-.113-.027h0l-.034-.008-.008,0-.035-.008h0l-.114-.028h0l-.035-.009-.008,0-.035-.009h0l-.112-.028h0l-.035-.009-.007,0-.035-.009h0l-.152-.038-.006,0-.154-.039h0l-.038-.01h0l-.194-.05h0l-.194-.05h0l-.193-.051h0l-.194-.052h0a65.08,65.08,0,0,1-19.42-8.842h0l-.324-.219,0,0-.031-.021h0l-.127-.087,0,0-.029-.02,0,0-.122-.084-.008-.006-.027-.019-.006,0-.091-.063h0l-.028-.02-.007,0-.027-.019-.008-.005-.085-.059-.007-.005-.025-.017-.011-.007-.024-.017-.01-.007-.025-.017h0l-.055-.038-.011-.007-.023-.016-.013-.009-.021-.015-.015-.011-.021-.015-.008-.006-.046-.033-.012-.009-.021-.015-.016-.011-.02-.014L6.4,118.8l-.02-.015-.015-.01-.037-.026-.016-.012-.02-.014-.016-.011-.02-.014-.017-.012-.019-.014-.033-.024-.015-.011-.021-.015-.017-.012-.02-.014-.017-.012-.022-.016-.014-.01-.035-.025-.011-.008-.025-.018-.015-.011-.022-.016-.014-.01-.026-.019-.011-.008-.036-.026-.006,0-.03-.022-.012-.009-.026-.019-.012-.008-.028-.02-.009-.007-.037-.027,0,0-.032-.023-.011-.008-.027-.02-.01-.007-.032-.023-.005,0-.038-.028A13.573,13.573,0,0,1,21.6,96.291,38.254,38.254,0,1,0,44.165,27.147,13.573,13.573,0,0,1,44.165,0Z" transform="matrix(-0.946, 0.326, -0.326, -0.946, 997.285, 656.332)" fill="#ffffff"/>
    <path id="Ellipse_14" data-name="Ellipse 14" d="M45.039,27.147A17.892,17.892,0,1,0,62.932,45.039,17.913,17.913,0,0,0,45.039,27.147M45.039,0A45.039,45.039,0,1,1,0,45.039,45.039,45.039,0,0,1,45.039,0Z" transform="translate(761.027 584.195)" fill="#ffffff"/>
    <path id="Ellipse_15" data-name="Ellipse 15" d="M45.039,27.147A17.892,17.892,0,1,0,62.932,45.039,17.913,17.913,0,0,0,45.039,27.147M45.039,0A45.039,45.039,0,1,1,0,45.039,45.039,45.039,0,0,1,45.039,0Z" transform="translate(1043.559 584.195)" fill="#ffffff"/>
    <circle id="Ellipse_16" data-name="Ellipse 16" cx="45.039" cy="45.039" r="45.039" transform="translate(1253.33 584.195)" fill="none"/>
    <path id="Path_4566" data-name="Path 4566" d="M-5259.534-62.1a46.58,46.58,0,0,1-7.358-3.726,46.181,46.181,0,0,1-6.548-4.935,43.9,43.9,0,0,1-5.5-5.981,40.491,40.491,0,0,1-4.22-6.864,35.928,35.928,0,0,1-3.658-15.731v-36.093A13.574,13.574,0,0,1-5273.246-149a13.574,13.574,0,0,1,13.573,13.574v36.093c0,6.447,8.4,13.265,16.35,13.265s16.349-6.818,16.349-13.265v-36.093A13.575,13.575,0,0,1-5213.4-149a13.574,13.574,0,0,1,13.574,13.574v35.738c.02.1.038.19.056.286,1.467,7.982,3.465,17.793,4.335,20.915a13.574,13.574,0,0,1-1.61,14.331,13.549,13.549,0,0,1-10.634,5.128,13.517,13.517,0,0,1-8.437-2.949,11.625,11.625,0,0,1-3.481-3.94l-.153.1a46.691,46.691,0,0,1-7.358,3.726,43.6,43.6,0,0,1-16.212,3.175A43.588,43.588,0,0,1-5259.534-62.1Z" transform="translate(6436.666 733.195)" fill="#ffffff"/>
    <path id="Path_4578" data-name="Path 4578" d="M13756-8829.9a105.649,105.649,0,0,1,2.133-21.136,104.285,104.285,0,0,1,6.111-19.683,104.815,104.815,0,0,1,9.668-17.814,105.691,105.691,0,0,1,12.8-15.52,105.785,105.785,0,0,1,15.521-12.8,104.879,104.879,0,0,1,17.813-9.668,104.263,104.263,0,0,1,19.686-6.109,105.545,105.545,0,0,1,21.135-2.132,105.545,105.545,0,0,1,21.135,2.132,104.265,104.265,0,0,1,11.969,3.2q2.953-5.329,6.365-10.382a140.007,140.007,0,0,1,16.947-20.537,139.993,139.993,0,0,1,20.537-16.946,138.781,138.781,0,0,1,23.574-12.793,138,138,0,0,1,26.047-8.085,139.723,139.723,0,0,1,27.967-2.82,139.767,139.767,0,0,1,27.967,2.82,138.107,138.107,0,0,1,26.049,8.085,138.969,138.969,0,0,1,23.57,12.793,139.848,139.848,0,0,1,20.541,16.946,139.59,139.59,0,0,1,16.941,20.537q3.595,5.316,6.691,10.966c3.029-.264,6.076-.4,9.123-.4a103.474,103.474,0,0,1,39.281,7.667,103.937,103.937,0,0,1,17.266,9.02,104.253,104.253,0,0,1,15.17,11.967,104.646,104.646,0,0,1,12.705,14.541,104.462,104.462,0,0,1,9.855,16.734,103.355,103.355,0,0,1,6.625,18.549,104.334,104.334,0,0,1,3.025,19.973h0a104.042,104.042,0,0,0-100.773-77.95c-1.076,0-2.158.017-3.236.05a138.033,138.033,0,0,1,5.152,18.5,139.829,139.829,0,0,1,2.82,27.969c0,3.395-.125,6.836-.373,10.226a137.124,137.124,0,0,0-16.568-56.034.021.021,0,0,0-.01,0l-11.979-18.286a139.042,139.042,0,0,0-109.842-54.178,139.044,139.044,0,0,0-110.723,55.3,105.11,105.11,0,0,1,14.814,8.342,105.872,105.872,0,0,1,15.52,12.8,105.872,105.872,0,0,1,12.8,15.52,104.977,104.977,0,0,1,9.668,17.814,104.433,104.433,0,0,1,6.113,19.683,105.931,105.931,0,0,1,2.127,21.136c0,3.414-.164,6.861-.494,10.242a104.325,104.325,0,0,0-71.375-89.373l-8.271-2.338v0a106.277,106.277,0,0,0-24.725-2.9,104.413,104.413,0,0,0-104.373,94.616C13756.166-8823.041,13756-8826.49,13756-8829.9Z" transform="translate(-12907.672 9388)" fill="#ffbd4b"/>
    <path id="Path_4579" data-name="Path 4579" d="M0,0S13.7,7.229,27.682,7.229,55.941,0,55.941,0s-9.126,14.869-9.126,29.155,9.126,27.989,9.126,27.989-14.273-7.132-28.259-7.132S0,57.144,0,57.144s6.052-13.7,6.052-27.989S0,0,0,0Z" transform="translate(1191.664 500.465) rotate(135)" fill="url(#linear-gradient)"/>
    <path id="Path_4580" data-name="Path 4580" d="M0,0S7.708,4.068,15.578,4.068,31.481,0,31.481,0s-5.136,8.367-5.136,16.407,5.136,15.751,5.136,15.751-8.032-4.013-15.9-4.013S0,32.158,0,32.158A44.552,44.552,0,0,0,3.406,16.407C3.406,8.367,0,0,0,0Z" transform="translate(1089.201 522.3) rotate(-45)" fill="url(#linear-gradient)"/>
  </g>
</svg>
